<svg xmlns="http://www.w3.org/2000/svg" viewBox="0 0 260 220" fill="none">
  <path d="M125 107c-2-35 9-58 33-73M126 82c-25-6-40-22-43-47 24-2 41 15 43 47ZM133 62c3-24 19-39 44-42 1 24-15 40-44 42ZM79 112h104l-13 84H93l-14-84Z" stroke="#101010" stroke-width="8" stroke-linecap="round" stroke-linejoin="round"/>
  <path d="M67 106h128M206 155c12 14 13 25 2 35-11-10-10-21-2-35Z" stroke="#101010" stroke-width="8" stroke-linecap="round" stroke-linejoin="round"/>
  <path d="m72 29-12-14M55 48l-19-3M191 39l17-13" stroke="#ef2d83" stroke-width="7" stroke-linecap="round"/>
</svg>
