<svg xmlns="http://www.w3.org/2000/svg" viewBox="0 0 520 300" role="img" aria-labelledby="title description">
  <title id="title">Electronics ready for a photo</title>
  <desc id="description">Three electronic parts spaced neatly inside a simple photo frame.</desc>
  <defs>
    <filter id="shadow" x="-20%" y="-20%" width="140%" height="150%">
      <feDropShadow dx="0" dy="6" stdDeviation="5" flood-color="#38291f" flood-opacity=".16"/>
    </filter>
  </defs>

  <rect x="22" y="22" width="476" height="256" rx="30" fill="#fffdf8" stroke="#11100f" stroke-width="5" stroke-dasharray="13 13"/>
  <path d="M48 86V54h32M440 54h32v32M472 214v32h-32M80 246H48v-32" fill="none" stroke="#ef2d83" stroke-width="8" stroke-linecap="round"/>

  <g filter="url(#shadow)">
    <g transform="translate(86 96) rotate(-4 63 55)">
      <rect width="126" height="110" rx="16" fill="#8fa0f2" stroke="#11100f" stroke-width="5"/>
      <rect x="25" y="20" width="76" height="54" rx="7" fill="#202128" stroke="#11100f" stroke-width="4"/>
      <path d="M37 34h51M37 46h39M37 58h46" stroke="#d9e0ff" stroke-width="4" stroke-linecap="round"/>
      <rect x="44" y="84" width="38" height="15" rx="4" fill="#f7f1e7" stroke="#11100f" stroke-width="4"/>
      <g fill="#f5b91f" stroke="#11100f" stroke-width="2">
        <circle cx="10" cy="22" r="4"/><circle cx="10" cy="42" r="4"/><circle cx="10" cy="62" r="4"/><circle cx="10" cy="82" r="4"/>
        <circle cx="116" cy="22" r="4"/><circle cx="116" cy="42" r="4"/><circle cx="116" cy="62" r="4"/><circle cx="116" cy="82" r="4"/>
      </g>
    </g>

    <g transform="translate(232 115)">
      <rect width="96" height="82" rx="16" fill="#8adccb" stroke="#11100f" stroke-width="5"/>
      <circle cx="48" cy="31" r="23" fill="#f7f1e7" stroke="#11100f" stroke-width="5"/>
      <path d="M33 28c8-9 22-9 30 0M35 37c7 7 19 7 26 0" fill="none" stroke="#5169df" stroke-width="4" stroke-linecap="round"/>
      <path d="M25 82v18M48 82v18M71 82v18" stroke="#11100f" stroke-width="5" stroke-linecap="round"/>
    </g>

    <g transform="translate(352 87) rotate(4 49 63)">
      <rect width="102" height="126" rx="14" fill="#5169df" stroke="#11100f" stroke-width="5"/>
      <rect x="14" y="16" width="74" height="70" rx="6" fill="#25252b" stroke="#11100f" stroke-width="4"/>
      <path d="M26 63c8-23 17-11 25-28 7 18 15 10 25 28" fill="none" stroke="#75ead1" stroke-width="5" stroke-linecap="round" stroke-linejoin="round"/>
      <circle cx="25" cy="105" r="7" fill="#f5b91f" stroke="#11100f" stroke-width="3"/>
      <circle cx="51" cy="105" r="7" fill="#ef2d83" stroke="#11100f" stroke-width="3"/>
      <circle cx="77" cy="105" r="7" fill="#75ead1" stroke="#11100f" stroke-width="3"/>
    </g>
  </g>

  <g transform="translate(229 28)">
    <circle cx="31" cy="31" r="31" fill="#ffe064" stroke="#11100f" stroke-width="5"/>
    <path d="M31 42V18m0 0L20 29m11-11 11 11" fill="none" stroke="#11100f" stroke-width="6" stroke-linecap="round" stroke-linejoin="round"/>
  </g>
</svg>
