<svg xmlns="http://www.w3.org/2000/svg" viewBox="0 0 24 24" role="img">
  <path fill="#4285f4" d="M21.8 12.2c0-.7-.1-1.4-.2-2H12v3.8h5.5a4.7 4.7 0 0 1-2 3.1v2.5h3.2c1.9-1.8 3.1-4.4 3.1-7.4Z"/>
  <path fill="#34a853" d="M12 22c2.7 0 5-.9 6.7-2.4l-3.2-2.5c-.9.6-2 1-3.5 1a5.9 5.9 0 0 1-5.5-4.1H3.2v2.6A10 10 0 0 0 12 22Z"/>
  <path fill="#fbbc05" d="M6.5 14a6 6 0 0 1 0-3.9V7.4H3.2a10 10 0 0 0 0 9.2L6.5 14Z"/>
  <path fill="#ea4335" d="M12 5.9c1.6 0 3 .5 4.1 1.6L19 4.6A9.7 9.7 0 0 0 3.2 7.4l3.3 2.7A5.9 5.9 0 0 1 12 5.9Z"/>
</svg>
